<?xml version="1.0" encoding="UTF-8"?>
<svg version="1.1" xmlns="http://www.w3.org/2000/svg" width="273" height="273">
<path d="M0 0 C1.04220703 0.31799561 2.08441406 0.63599121 3.15820312 0.96362305 C10.49195873 3.22226374 17.77888897 5.62472039 25.04443359 8.09326172 C34.70685423 11.36592956 44.45265269 14.36921313 54.19726562 17.38598633 C81.72439185 25.9162881 81.72439185 25.9162881 86.5 31 C88.48190378 36.47938103 88.48190378 42.39561897 86.5 47.875 C80.45342762 54.31167383 71.80392024 55.78855825 63.5625 57.9375 C63.97242188 58.91589844 64.38234375 59.89429688 64.8046875 60.90234375 C69.5194466 72.29901436 71.94259607 81.45767914 71.5625 93.9375 C75.90843868 93.5735544 79.62320386 92.85030754 83.5625 90.9375 C85.88383237 87.77896579 87.41578591 84.60959965 89.0546875 81.0546875 C91.0531501 76.92315082 92.62243474 75.2358714 96.5625 72.9375 C101.11176448 71.6140776 104.5461656 71.60577501 108.87109375 73.734375 C112.77415549 76.51068681 115.59593075 80.75581512 117.51953125 85.09765625 C118.6646658 87.53848088 119.57839669 89.08594639 121.5625 90.9375 C124.69339682 92.05542068 127.72759265 92.85295328 130.96142578 93.58007812 C136.39989867 94.80859629 139.65318499 95.93727068 143.5625 99.9375 C145.83838647 104.17343563 145.8674119 107.91323406 144.625 112.5 C142.98664001 116.78494152 140.47629082 119.50177528 137.0859375 122.52734375 C135.4437339 123.88120007 135.4437339 123.88120007 134.5625 125.9375 C133.9025 125.9375 133.2425 125.9375 132.5625 125.9375 C132.74167969 127.071875 132.92085938 128.20625 133.10546875 129.375 C133.3213683 130.89568381 133.53615261 132.41652625 133.75 133.9375 C133.87052734 134.68128906 133.99105469 135.42507812 134.11523438 136.19140625 C134.85798188 141.70211353 134.33477169 146.04224273 131.5625 150.9375 C129.10364421 153.68393413 127.17716246 154.99454458 123.5625 155.9375 C118.02055404 156.14979228 113.9397811 154.73543536 109.0625 152.1875 C105.16042951 150.29360805 103.03606596 149.5337669 98.875 150.9375 C97.42192397 151.56949742 95.98342386 152.23619688 94.5625 152.9375 C87.94123125 155.85828397 83.69051696 156.43061252 76.625 153.875 C75.944375 153.565625 75.26375 153.25625 74.5625 152.9375 C74.376875 153.618125 74.19125 154.29875 74 155 C71.52764514 160.05220342 67.74043582 163.99032478 62.5625 166.2421875 C58.7368885 168.4040565 57.73255108 170.52693726 55.8125 174.4375 C52.5625 180.9375 52.5625 180.9375 50.5625 183.9375 C49.9025 183.9375 49.2425 183.9375 48.5625 183.9375 C48.18544922 184.79601562 48.18544922 184.79601562 47.80078125 185.671875 C40.4819935 199.06271694 23.56950587 206.41107393 9.64892578 210.49951172 C-12.25723633 216.14086429 -35.32383805 211.95573016 -54.67480469 200.99316406 C-66.78446286 193.74078706 -76.41699653 182.65605557 -82.4375 169.9375 C-82.4375 168.9475 -82.4375 167.9575 -82.4375 166.9375 C-83.13875 166.855 -83.84 166.7725 -84.5625 166.6875 C-90.617691 165.10788496 -94.43535628 161.37963466 -97.984375 156.4296875 C-103.75200501 146.53789195 -106.38587589 136.29166694 -105.4375 124.9375 C-104.15308698 120.14887321 -102.54616414 116.84458884 -98.6875 113.6875 C-94.94068177 109.1080555 -96.06273962 103.62552978 -96.4375 97.9375 C-97.17355469 97.76734375 -97.90960938 97.5971875 -98.66796875 97.421875 C-110.13874312 94.57312258 -110.13874312 94.57312258 -113.5390625 89.1953125 C-116.30444463 82.24578697 -114.83329592 73.90242078 -112.171875 67.1484375 C-110.85830397 63.19375025 -110.68805406 59.07596183 -110.4375 54.9375 C-111.324375 54.69 -112.21125 54.4425 -113.125 54.1875 C-117.15760767 52.66576126 -120.23534505 50.86683259 -122.5546875 47.14453125 C-124.25572063 42.89194842 -123.95871653 38.42798086 -123.4375 33.9375 C-119.37395299 25.97972044 -108.13574989 23.64361619 -100.1875 21.0625 C-99.13264404 20.71517822 -98.07778809 20.36785645 -96.9909668 20.01000977 C-89.62907098 17.6033107 -82.23103233 15.34036003 -74.80102539 13.15454102 C-68.86320613 11.39740104 -62.99110679 9.4824 -57.125 7.5 C-53.56422538 6.30728416 -50.00126677 5.12124238 -46.4375 3.9375 C-44.96700195 3.44636719 -44.96700195 3.44636719 -43.46679688 2.9453125 C-40.44210935 1.94419719 -37.40999476 0.96936419 -34.375 0 C-33.46000732 -0.30671631 -32.54501465 -0.61343262 -31.60229492 -0.92944336 C-20.50825618 -4.41344703 -10.95230286 -3.48990186 0 0 Z " fill="#333B41" transform="translate(125.4375,31.0625)"/>
<path d="M0 0 C1.04220703 0.31799561 2.08441406 0.63599121 3.15820312 0.96362305 C10.49195873 3.22226374 17.77888897 5.62472039 25.04443359 8.09326172 C34.70685423 11.36592956 44.45265269 14.36921313 54.19726562 17.38598633 C81.72439185 25.9162881 81.72439185 25.9162881 86.5 31 C88.48190378 36.47938103 88.48190378 42.39561897 86.5 47.875 C80.45342762 54.31167383 71.80392024 55.78855825 63.5625 57.9375 C63.97242188 58.91589844 64.38234375 59.89429688 64.8046875 60.90234375 C69.5194466 72.29901436 71.94259607 81.45767914 71.5625 93.9375 C75.90843868 93.5735544 79.62320386 92.85030754 83.5625 90.9375 C85.88383237 87.77896579 87.41578591 84.60959965 89.0546875 81.0546875 C91.0531501 76.92315082 92.62243474 75.2358714 96.5625 72.9375 C101.11176448 71.6140776 104.5461656 71.60577501 108.87109375 73.734375 C112.77415549 76.51068681 115.59593075 80.75581512 117.51953125 85.09765625 C118.6646658 87.53848088 119.57839669 89.08594639 121.5625 90.9375 C124.69339682 92.05542068 127.72759265 92.85295328 130.96142578 93.58007812 C136.39989867 94.80859629 139.65318499 95.93727068 143.5625 99.9375 C145.83838647 104.17343563 145.8674119 107.91323406 144.625 112.5 C142.98664001 116.78494152 140.47629082 119.50177528 137.0859375 122.52734375 C135.4437339 123.88120007 135.4437339 123.88120007 134.5625 125.9375 C133.9025 125.9375 133.2425 125.9375 132.5625 125.9375 C132.74167969 127.071875 132.92085938 128.20625 133.10546875 129.375 C133.3213683 130.89568381 133.53615261 132.41652625 133.75 133.9375 C133.87052734 134.68128906 133.99105469 135.42507812 134.11523438 136.19140625 C134.85798188 141.70211353 134.33477169 146.04224273 131.5625 150.9375 C129.10364421 153.68393413 127.17716246 154.99454458 123.5625 155.9375 C118.02055404 156.14979228 113.9397811 154.73543536 109.0625 152.1875 C105.16042951 150.29360805 103.03606596 149.5337669 98.875 150.9375 C97.42192397 151.56949742 95.98342386 152.23619688 94.5625 152.9375 C87.94123125 155.85828397 83.69051696 156.43061252 76.625 153.875 C75.944375 153.565625 75.26375 153.25625 74.5625 152.9375 C74.376875 153.618125 74.19125 154.29875 74 155 C71.52764514 160.05220342 67.74043582 163.99032478 62.5625 166.2421875 C58.7368885 168.4040565 57.73255108 170.52693726 55.8125 174.4375 C52.5625 180.9375 52.5625 180.9375 50.5625 183.9375 C49.9025 183.9375 49.2425 183.9375 48.5625 183.9375 C48.18544922 184.79601562 48.18544922 184.79601562 47.80078125 185.671875 C40.4819935 199.06271694 23.56950587 206.41107393 9.64892578 210.49951172 C-12.25723633 216.14086429 -35.32383805 211.95573016 -54.67480469 200.99316406 C-66.78446286 193.74078706 -76.41699653 182.65605557 -82.4375 169.9375 C-82.4375 168.9475 -82.4375 167.9575 -82.4375 166.9375 C-83.13875 166.855 -83.84 166.7725 -84.5625 166.6875 C-90.617691 165.10788496 -94.43535628 161.37963466 -97.984375 156.4296875 C-103.75200501 146.53789195 -106.38587589 136.29166694 -105.4375 124.9375 C-104.15308698 120.14887321 -102.54616414 116.84458884 -98.6875 113.6875 C-94.94068177 109.1080555 -96.06273962 103.62552978 -96.4375 97.9375 C-97.17355469 97.76734375 -97.90960938 97.5971875 -98.66796875 97.421875 C-110.13874312 94.57312258 -110.13874312 94.57312258 -113.5390625 89.1953125 C-116.30444463 82.24578697 -114.83329592 73.90242078 -112.171875 67.1484375 C-110.85830397 63.19375025 -110.68805406 59.07596183 -110.4375 54.9375 C-111.324375 54.69 -112.21125 54.4425 -113.125 54.1875 C-117.15760767 52.66576126 -120.23534505 50.86683259 -122.5546875 47.14453125 C-124.25572063 42.89194842 -123.95871653 38.42798086 -123.4375 33.9375 C-119.37395299 25.97972044 -108.13574989 23.64361619 -100.1875 21.0625 C-99.13264404 20.71517822 -98.07778809 20.36785645 -96.9909668 20.01000977 C-89.62907098 17.6033107 -82.23103233 15.34036003 -74.80102539 13.15454102 C-68.86320613 11.39740104 -62.99110679 9.4824 -57.125 7.5 C-53.56422538 6.30728416 -50.00126677 5.12124238 -46.4375 3.9375 C-44.96700195 3.44636719 -44.96700195 3.44636719 -43.46679688 2.9453125 C-40.44210935 1.94419719 -37.40999476 0.96936419 -34.375 0 C-33.46000732 -0.30671631 -32.54501465 -0.61343262 -31.60229492 -0.92944336 C-20.50825618 -4.41344703 -10.95230286 -3.48990186 0 0 Z M-27.625 8.875 C-28.68340088 9.19791016 -28.68340088 9.19791016 -29.76318359 9.52734375 C-32.3259864 10.31639326 -34.88195773 11.12523904 -37.4375 11.9375 C-38.52015137 12.28055176 -39.60280273 12.62360352 -40.71826172 12.97705078 C-51.7127731 16.46942499 -62.69626368 19.99393778 -73.625 23.6875 C-78.71676479 25.40435372 -83.83830037 26.94969574 -89 28.4375 C-102.19109928 31.4924435 -102.19109928 31.4924435 -113.4375 37.9375 C-113.58518913 40.45499828 -113.58518913 40.45499828 -112.4375 42.9375 C-109.30043578 45.02887615 -106.86226198 45.88139936 -103.125 46.375 C-99.18009627 46.97676498 -96.36237615 48.2597402 -92.79296875 49.94921875 C-89.12473167 51.48829666 -85.34052168 52.23624788 -81.4375 52.9375 C-81.35577064 55.4590021 -81.29666627 57.97779917 -81.25 60.5 C-81.22486328 61.20447266 -81.19972656 61.90894531 -81.17382812 62.63476562 C-81.1028306 67.77025327 -82.22551703 71.22597626 -84.4375 75.9375 C-86.71460268 84.93631753 -87.73776385 94.87585453 -85.4375 103.9375 C-85.00149592 107.99951268 -84.82728933 111.88843857 -85.4375 115.9375 C-88.1875 118.3125 -88.1875 118.3125 -91.4375 119.9375 C-94.81856116 123.85241292 -95.99228946 126.71070553 -95.6953125 131.9375 C-94.57732191 140.61039673 -90.79155609 149.8658464 -84.4375 155.9375 C-82.97214907 156.51549953 -81.49110629 157.05462319 -80 157.5625 C-74.47133056 159.74655289 -73.19892336 163.62080652 -70.890625 168.83984375 C-68.72410402 173.45826079 -65.78722895 177.12253092 -62.4375 180.9375 C-61.56351563 181.95263672 -61.56351563 181.95263672 -60.671875 182.98828125 C-49.1725763 195.42974939 -32.65429363 202.04368136 -15.9140625 203.17578125 C3.92808548 203.55813501 22.33323986 197.60788704 36.9375 183.8203125 C38.7802915 182.09966975 38.7802915 182.09966975 38.5625 179.9375 C39.2225 179.9375 39.8825 179.9375 40.5625 179.9375 C41.97191913 177.92062422 43.24883007 175.92456667 44.5 173.8125 C44.84740234 173.24273437 45.19480469 172.67296875 45.55273438 172.0859375 C49.9063349 165.43819694 49.9063349 165.43819694 51.5625 157.9375 C52.8 158.1540625 52.8 158.1540625 54.0625 158.375 C59.4096348 157.70660815 62.27362403 155.11965093 65.5625 150.9375 C67.60103937 146.70979026 69.11005457 142.39457503 70.5625 137.9375 C70.8925 137.2775 71.2225 136.6175 71.5625 135.9375 C72.04216313 130.61402557 72.48112037 125.66874608 69.9375 120.875 C66.86116057 118.36535467 63.66149203 115.9375 59.5625 115.9375 C59.7790625 114.266875 59.7790625 114.266875 60 112.5625 C61.26452157 102.34611156 62.14625978 92.24153891 61.5625 81.9375 C61.2325 81.6075 60.9025 81.2775 60.5625 80.9375 C60.35625 79.7 60.15 78.4625 59.9375 77.1875 C57.8780553 67.56651208 52.27743914 58.97999714 45.5625 51.9375 C47.2640625 51.5971875 47.2640625 51.5971875 49 51.25 C53.8031667 50.17923035 58.52400932 48.86533143 63.25 47.5 C63.97437256 47.29479736 64.69874512 47.08959473 65.44506836 46.87817383 C69.74136924 45.61849703 73.60299814 44.07625455 77.5625 41.9375 C77.72937448 39.52104218 77.72937448 39.52104218 77.5625 36.9375 C74.78781182 34.16281182 71.56053194 33.63858181 67.875 32.625 C59.03364341 30.11118928 50.34309286 27.2651404 41.64794922 24.28027344 C35.33691585 22.11548856 29.05921998 19.98558053 22.5625 18.4375 C14.03159708 16.40470118 5.77641809 13.43531004 -2.48046875 10.50390625 C-3.14328857 10.27300293 -3.8061084 10.04209961 -4.48901367 9.80419922 C-6.32889974 9.16285565 -8.16459725 8.50953223 -10 7.85546875 C-16.38092479 6.15147179 -21.39219292 6.95671637 -27.625 8.875 Z " fill="#F8F8F7" transform="translate(125.4375,31.0625)"/>
<path d="M0 0 C3.23572112 1.38076031 4.87624209 2.84862898 7 5.625 C13.82045035 13.63793847 22.87695432 18.34226894 32.6015625 21.9921875 C35 23 35 23 37 25 C37.1953125 27.6015625 37.1953125 27.6015625 37.125 30.625 C37.10695312 31.62789062 37.08890625 32.63078125 37.0703125 33.6640625 C37.04710937 34.43492187 37.02390625 35.20578125 37 36 C34.09399739 37.25664978 32.20395416 38 29 38 C28.505 38.99 28.505 38.99 28 40 C27.01 40.495 27.01 40.495 26 41 C26 41.99 26 42.98 26 44 C26.598125 43.34 27.19625 42.68 27.8125 42 C30 40 30 40 33 40 C33.33 40.66 33.66 41.32 34 42 C36.71535907 42.43202867 36.71535907 42.43202867 39.875 42.5625 C43.20115284 42.75886324 45.83126825 42.94375608 49 44 C51.11546707 47.17320061 51.26149574 48.13623799 50.609375 51.76171875 C49.09633383 57.31923535 47.31759789 63.81270881 43.0546875 67.8359375 C41 69 41 69 37.4375 69.375 C33.90078475 69.60782162 33.90078475 69.60782162 32.4296875 72.17578125 C30.994802 75.01026819 29.819309 77.84490457 28.6875 80.8125 C26.53525678 86.08875686 24.07500861 90.93694156 20 95 C19.34 95 18.68 95 18 95 C18 95.66 18 96.32 18 97 C11.7223591 102.5022301 4.95258724 107.32663451 -3 110 C-3.83144531 110.29648438 -4.66289062 110.59296875 -5.51953125 110.8984375 C-23.84453567 116.48564164 -41.24517818 112.84081244 -57.83203125 104.171875 C-58.90517578 103.59179688 -58.90517578 103.59179688 -60 103 C-60 102.34 -60 101.68 -60 101 C-60.58007812 100.74347656 -61.16015625 100.48695313 -61.7578125 100.22265625 C-69.36182232 96.07621884 -76.31942344 87.25790343 -78.94140625 79.0546875 C-79.22886719 78.06726563 -79.51632813 77.07984375 -79.8125 76.0625 C-80.63036715 73.2689909 -80.63036715 73.2689909 -82 71 C-84.34387095 69.925907 -86.3337441 69.64377522 -88.88671875 69.35546875 C-91 69 -91 69 -93.3125 66.9375 C-97.09617019 60.35111115 -100.74871066 53.84556676 -99 46 C-97.890625 44.28515625 -97.890625 44.28515625 -96 43 C-92.86328125 42.48828125 -92.86328125 42.48828125 -89.3125 42.3125 C-87.54326172 42.21388672 -87.54326172 42.21388672 -85.73828125 42.11328125 C-84.38283203 42.05720703 -84.38283203 42.05720703 -83 42 C-82.34 40.35 -81.68 38.7 -81 37 C-82.98 36.34 -84.96 35.68 -87 35 C-86.77914629 29.47865726 -85.63872087 27.01951849 -81.77539062 23.37792969 C-78.89258095 21.1405015 -75.78712388 20.09734996 -72.3125 19.1875 C-71.17627197 18.87643311 -71.17627197 18.87643311 -70.01708984 18.55908203 C-61.69589342 16.5342083 -53.27434927 16.39172953 -44.7434082 16.36401367 C-28.29698507 16.22400785 -12.38440739 11.07388809 0 0 Z " fill="#3B4349" transform="translate(138,112)"/>
<path d="M0 0 C3 0.9375 3 0.9375 5 3 C5.70159231 5.2476939 6.13872406 7.45615672 6.53125 9.77734375 C7.12397472 12.58784679 8.4183872 14.62758079 10 17 C10 17.66 10 18.32 10 19 C10.99 19.33 11.98 19.66 13 20 C13.804375 20.928125 13.804375 20.928125 14.625 21.875 C19.24759152 26.01100294 25.72757946 27.6471574 31.8984375 27.33984375 C39.27643817 26.14674699 44.91336037 23.1964773 49.609375 17.359375 C51.65488299 13.88890639 52.47153502 10.35634861 53.19921875 6.41796875 C54.19547751 3.40975327 55.26431081 2.5353868 58 1 C61.56437874 0.61810228 63.96948017 0.42162781 67.13671875 2.19921875 C69.48448312 4.46823211 69.72429084 6.00398631 70.3125 9.1875 C72.04658984 16.34180508 75.78560568 20.68264595 81.6875 24.9375 C87.44476527 27.58272999 93.64797596 28.06567238 99.703125 26.140625 C102.16354636 25.1478234 104.58038232 24.08751769 107 23 C107.99 22.67 108.98 22.34 110 22 C110 21.34 110 20.68 110 20 C110.66 20 111.32 20 112 20 C112.268125 19.319375 112.53625 18.63875 112.8125 17.9375 C113.67680499 15.7994824 114.57768417 13.67614043 115.5 11.5625 C117.04721507 8.09108189 117.04721507 8.09108189 117.9375 4.6875 C119 2 119 2 120.78125 0.84375 C123.2090977 -0.07951603 124.9749892 -0.2356601 127.5625 -0.1875 C128.32691406 -0.18105469 129.09132812 -0.17460937 129.87890625 -0.16796875 C132 0 132 0 135 1 C137.11546707 4.17320061 137.26149574 5.13623799 136.609375 8.76171875 C135.09633383 14.31923535 133.31759789 20.81270881 129.0546875 24.8359375 C127 26 127 26 123.4375 26.375 C119.90078475 26.60782162 119.90078475 26.60782162 118.4296875 29.17578125 C116.994802 32.01026819 115.819309 34.84490457 114.6875 37.8125 C112.53525678 43.08875686 110.07500861 47.93694156 106 52 C105.34 52 104.68 52 104 52 C104 52.66 104 53.32 104 54 C97.7223591 59.5022301 90.95258724 64.32663451 83 67 C82.16855469 67.29648438 81.33710938 67.59296875 80.48046875 67.8984375 C62.15546433 73.48564164 44.75482182 69.84081244 28.16796875 61.171875 C27.09482422 60.59179688 27.09482422 60.59179688 26 60 C26 59.34 26 58.68 26 58 C25.41992188 57.74347656 24.83984375 57.48695313 24.2421875 57.22265625 C16.63817768 53.07621884 9.68057656 44.25790343 7.05859375 36.0546875 C6.62740234 34.57355469 6.62740234 34.57355469 6.1875 33.0625 C5.36963285 30.2689909 5.36963285 30.2689909 4 28 C1.65612905 26.925907 -0.3337441 26.64377522 -2.88671875 26.35546875 C-5 26 -5 26 -7.3125 23.9375 C-11.09617019 17.35111115 -14.74871066 10.84556676 -13 3 C-9.81490881 -1.51814853 -4.9817819 -0.54911015 0 0 Z " fill="#F9FAFA" transform="translate(52,155)"/>
<path d="M0 0 C2.8671875 0.26953125 2.8671875 0.26953125 6 1 C7.3203125 2.63671875 7.3203125 2.63671875 8.125 4.6875 C9.3064122 7.45736557 10.4912722 9.86503964 12.25 12.3125 C14 15 14 15 14 18 C14.60062256 18.08564209 15.20124512 18.17128418 15.82006836 18.25952148 C18.52651658 18.64788015 21.23199836 19.04260329 23.9375 19.4375 C24.88302734 19.57220703 25.82855469 19.70691406 26.80273438 19.84570312 C28.15141602 20.04389648 28.15141602 20.04389648 29.52734375 20.24609375 C30.35999756 20.36654053 31.19265137 20.4869873 32.05053711 20.61108398 C34 21 34 21 35 22 C35.44140625 24.2578125 35.44140625 24.2578125 35 27 C33.59303745 28.21895434 32.17380234 29.42831456 30.68066406 30.54003906 C26.57898296 33.68121445 23.41337456 36.53520592 22.52978516 41.80371094 C22.30197067 48.58252886 23.01543147 55.29880172 24 62 C17.480293 61.53844359 13.09597866 60.34617624 7.45703125 56.9609375 C3.25722586 55.3184063 0.03200011 56.59490343 -4.03515625 58.19140625 C-6.05652537 59.10689084 -8.07735772 60.02356149 -10.09765625 60.94140625 C-12.97280179 61.99007979 -14.97354281 62.21657217 -18 62 C-18.02708567 60.39592672 -18.04643483 58.7917215 -18.0625 57.1875 C-18.07410156 56.29417969 -18.08570313 55.40085938 -18.09765625 54.48046875 C-18 52 -18 52 -17 49 C-16.26663888 45.46711251 -16.10716027 42.51555642 -17 39 C-20.43607229 34.87544999 -24.64070526 31.80244256 -28.88671875 28.55859375 C-30 27 -30 27 -29.6875 24.3125 C-29.3471875 23.1678125 -29.3471875 23.1678125 -29 22 C-22.49577707 19.99134292 -16.8218683 18.61385651 -10 19 C-9.75507813 18.32582031 -9.51015625 17.65164062 -9.2578125 16.95703125 C-7.72738164 13.35909286 -5.84156692 10.06123937 -3.875 6.6875 C-3.50246094 6.04232422 -3.12992188 5.39714844 -2.74609375 4.73242188 C-1.83367787 3.15324055 -0.91724491 1.57638136 0 0 Z " fill="#FBCB4C" transform="translate(225,114)"/>
<path d="M0 0 C5.43680122 3.0312808 8.88982957 6.52388167 11.98828125 11.89453125 C11.98828125 12.55453125 11.98828125 13.21453125 11.98828125 13.89453125 C12.66890625 13.56453125 13.34953125 13.23453125 14.05078125 12.89453125 C17.49668363 11.7214581 20.37225547 11.75272632 23.98828125 11.89453125 C23.98828125 14.89453125 23.98828125 14.89453125 22.92578125 16.33203125 C20.98828125 17.89453125 20.98828125 17.89453125 17.48828125 19.39453125 C14.9004701 20.79626229 14.12820112 21.50725305 13.11328125 24.31640625 C12.689513 26.23395758 12.26770002 28.15194187 11.84765625 30.0703125 C10.03208817 36.03692942 5.54646058 40.17334262 0.30078125 43.33203125 C-6.31019656 46.45041701 -12.53394318 46.81193201 -19.57421875 44.76953125 C-26.1776048 42.3331095 -30.96880967 38.04438854 -34.25 31.828125 C-35.39665127 28.91739485 -35.86689647 25.91735558 -36.44140625 22.8515625 C-36.90601506 20.65730543 -36.90601506 20.65730543 -39.13671875 18.83203125 C-39.75546875 18.52265625 -40.37421875 18.21328125 -41.01171875 17.89453125 C-40.02171875 17.23453125 -39.03171875 16.57453125 -38.01171875 15.89453125 C-36.93562212 14.75954376 -35.89494434 13.59021587 -34.88671875 12.39453125 C-34.36851563 11.78609375 -33.8503125 11.17765625 -33.31640625 10.55078125 C-31.93825577 8.91607797 -31.93825577 8.91607797 -31.01171875 6.89453125 C-30.35171875 6.89453125 -29.69171875 6.89453125 -29.01171875 6.89453125 C-29.01171875 6.23453125 -29.01171875 5.57453125 -29.01171875 4.89453125 C-28.35171875 4.89453125 -27.69171875 4.89453125 -27.01171875 4.89453125 C-27.01171875 4.23453125 -27.01171875 3.57453125 -27.01171875 2.89453125 C-18.8814932 -2.04089022 -9.02038209 -3.31098331 0 0 Z " fill="#3A4248" transform="translate(93.01171875,137.10546875)"/>
<path d="M0 0 C3.23572112 1.38076031 4.87624209 2.84862898 7 5.625 C13.82045035 13.63793847 22.87695432 18.34226894 32.6015625 21.9921875 C35 23 35 23 37 25 C37.1953125 27.6015625 37.1953125 27.6015625 37.125 30.625 C37.10695313 31.62789062 37.08890625 32.63078125 37.0703125 33.6640625 C37.04710937 34.43492187 37.02390625 35.20578125 37 36 C34.69 36.66 32.38 37.32 30 38 C29.68289062 37.48050781 29.36578125 36.96101563 29.0390625 36.42578125 C25.07348179 30.49931947 20.91246688 27.00415147 14 25 C6.57125524 24.12305397 -2.40590912 23.87098982 -9 28 C-10.11773182 29.88106926 -10.11773182 29.88106926 -11 32 C-11.84993517 33.26717607 -12.72474121 34.51806692 -13.625 35.75 C-14.29402344 36.67039062 -14.29402344 36.67039062 -14.9765625 37.609375 C-15.31429687 38.06828125 -15.65203125 38.5271875 -16 39 C-16.680625 38.835 -17.36125 38.67 -18.0625 38.5 C-23.17740446 37.62937796 -27.96171281 37.77859704 -33 39 C-33.24492188 38.49210937 -33.48984375 37.98421875 -33.7421875 37.4609375 C-37.1281867 31.22602863 -41.25557211 27.38810482 -48 25 C-56.53441307 23.90025135 -64.0903839 24.66963532 -72 28 C-72 28.66 -72 29.32 -72 30 C-72.66 30 -73.32 30 -74 30 C-74 30.66 -74 31.32 -74 32 C-74.66 32 -75.32 32 -76 32 C-76.268125 32.804375 -76.53625 33.60875 -76.8125 34.4375 C-77.204375 35.283125 -77.59625 36.12875 -78 37 C-81 38 -81 38 -84.1875 36.5625 C-85.115625 36.046875 -86.04375 35.53125 -87 35 C-86.77914629 29.47865726 -85.63872087 27.01951849 -81.77539062 23.37792969 C-78.89258095 21.1405015 -75.78712388 20.09734996 -72.3125 19.1875 C-71.17627197 18.87643311 -71.17627197 18.87643311 -70.01708984 18.55908203 C-61.69589342 16.5342083 -53.27434927 16.39172953 -44.7434082 16.36401367 C-28.29698507 16.22400785 -12.38440739 11.07388809 0 0 Z " fill="#F6F7F7" transform="translate(138,112)"/>
<path d="M0 0 C5.23139177 2.76905916 8.59679587 5.23960636 10.5234375 11.01953125 C11.3004186 17.26867928 10.86569004 22.13517138 7.13671875 27.32421875 C3.3892991 31.26218516 -1.07153007 33.17972567 -6.4765625 33.51953125 C-11.87982234 33.17983711 -16.30723311 31.25189201 -20.08984375 27.359375 C-23.48284765 22.70474712 -24.23062774 18.3529326 -23.9765625 12.65234375 C-23.16783118 8.39386789 -21.41766563 6.17071317 -18.4765625 3.01953125 C-17.8165625 3.01953125 -17.1565625 3.01953125 -16.4765625 3.01953125 C-16.4765625 2.35953125 -16.4765625 1.69953125 -16.4765625 1.01953125 C-11.16152327 -1.7237148 -5.57522482 -2.20722623 0 0 Z " fill="#F8F9F9" transform="translate(88.4765625,142.98046875)"/>
<path d="M0 0 C4.8964986 5.27315234 5.41144428 8.88818382 5.34375 15.9453125 C4.8395773 20.42557448 3.29071448 22.99084397 0 26 C-4.74614776 29.67826451 -10.05226717 29.61151163 -15.859375 29.4921875 C-20.55191884 28.75678884 -23.10698922 26.65854594 -26 23 C-28.44503999 19.33244001 -28.26831152 17.42521863 -28.25 13.0625 C-28.25515625 11.83660156 -28.2603125 10.61070312 -28.265625 9.34765625 C-28.02083557 6.26258948 -27.62728656 4.57653706 -26 2 C-25.34 2 -24.68 2 -24 2 C-24 1.34 -24 0.68 -24 0 C-16.08800197 -5.49444308 -7.95569648 -5.37874262 0 0 Z " fill="#F9F9F9" transform="translate(157,146)"/>
<path d="M0 0 C5.62034876 -0.43233452 9.80967084 1.13356358 15 3 C17.35211391 3.79774493 19.70648983 4.58883661 22.0625 5.375 C22.69244873 5.58568115 23.32239746 5.7963623 23.97143555 6.01342773 C30.19991079 8.08699257 36.46371814 10.04283271 42.734375 11.984375 C44.82934744 12.63592145 46.91863504 13.30621168 49 14 C54.32138575 14.34103198 58.31217028 13.47748076 63.3125 11.6875 C64.6441613 11.22159749 65.976193 10.75675234 67.30859375 10.29296875 C68.52675781 9.86628906 69.74492188 9.43960938 71 9 C73.39167933 8.24113633 75.79100579 7.52456301 78.19921875 6.8203125 C80.51883255 6.1409277 82.83203159 5.44520396 85.14453125 4.7421875 C86.65880782 4.28630437 88.17313105 3.83057617 89.6875 3.375 C90.75750244 3.04725586 90.75750244 3.04725586 91.84912109 2.71289062 C96.2312303 1.40467667 100.45680797 0.53589421 105 0 C104.67 1.65 104.34 3.3 104 5 C102.80008423 5.36967896 102.80008423 5.36967896 101.57592773 5.74682617 C98.53749682 6.6838306 95.49951647 7.62227827 92.46185303 8.56176758 C91.1143885 8.97827213 89.76677323 9.39428934 88.41900635 9.80981445 C81.02695083 12.08966374 73.66956367 14.42142119 66.375 17 C54.59069705 20.86481742 47.38979249 19.9096501 35.9765625 15.75390625 C29.89270817 13.55079507 23.67537553 11.86774975 17.43212891 10.18139648 C11.43517856 8.52457609 5.73219296 6.41636325 0 4 C0 2.68 0 1.36 0 0 Z " fill="#ECEEF0" transform="translate(54,88)"/>
<path d="M0 0 C3.03063487 0.58929011 6.0017825 1.25044562 9 2 C9 8.6 9 15.2 9 22 C9.99 22.33 10.98 22.66 12 23 C13.8211333 27.62587335 14.48023662 33.07757463 14 38 C12 40 12 40 9.46875 40.265625 C8.4890625 40.26046875 7.509375 40.2553125 6.5 40.25 C5.5203125 40.25515625 4.540625 40.2603125 3.53125 40.265625 C1 40 1 40 -1 38 C-1.40291028 33.32624071 -1.33784507 30.82048087 0.4765625 26.4140625 C2.46527871 21.34511016 2.55732173 16.39309979 2.6875 11 C2.72166016 10.03449219 2.75582031 9.06898437 2.79101562 8.07421875 C2.87272699 5.71626218 2.94212119 3.35864137 3 1 C2.01 0.67 1.02 0.34 0 0 Z " fill="#F8C94D" transform="translate(22,77)"/>
<path d="M0 0 C0.57234375 0.50144531 1.1446875 1.00289062 1.734375 1.51953125 C4.96807122 3.63258447 7.5456485 3.43367829 11.375 3.4375 C13.30472656 3.46650391 13.30472656 3.46650391 15.2734375 3.49609375 C19.52226112 2.93047467 21.56175729 1.46079942 25 -1 C28.375 -0.75 28.375 -0.75 31 0 C31.3125 2.25 31.3125 2.25 31 5 C25.97697413 10.17523877 19.79228256 12.35523038 12.74438477 12.51806641 C12.02436279 12.51210449 11.30434082 12.50614258 10.5625 12.5 C9.81476318 12.49790527 9.06702637 12.49581055 8.29663086 12.49365234 C1.13437217 12.2885915 -2.99419184 10.00580816 -8 5 C-8.125 2.375 -8.125 2.375 -8 0 C-5.05854616 -1.47072692 -3.14695372 -0.75526889 0 0 Z " fill="#3B4448" transform="translate(103,193)"/>
<path d="M0 0 C3.03063487 0.58929011 6.0017825 1.25044562 9 2 C9 8.6 9 15.2 9 22 C9.99 22.33 10.98 22.66 12 23 C12 24.32 12 25.64 12 27 C11.34 27 10.68 27 10 27 C6.38397898 22.63100608 6.63681498 18.56165975 6.8125 13.1875 C6.82603516 12.39923828 6.83957031 11.61097656 6.85351562 10.79882812 C6.88866544 8.86558831 6.94246639 6.93270318 7 5 C6.34 5 5.68 5 5 5 C5 10.94 5 16.88 5 23 C4.34 23 3.68 23 3 23 C2.67 25.64 2.34 28.28 2 31 C1.34 31 0.68 31 0 31 C0 33.31 0 35.62 0 38 C-0.33 38 -0.66 38 -1 38 C-1.24641617 33.40023142 -1.30920918 30.75657566 0.46875 26.40625 C2.46788 21.34013173 2.5573045 16.3938134 2.6875 11 C2.72166016 10.03449219 2.75582031 9.06898437 2.79101562 8.07421875 C2.87272699 5.71626218 2.94212119 3.35864137 3 1 C2.01 0.67 1.02 0.34 0 0 Z " fill="#EAC86A" transform="translate(22,77)"/>
<path d="M0 0 C1.2684375 1.2375 1.2684375 1.2375 2.5625 2.5 C8.12759632 6.59877426 15.43673316 5.38011198 22 5 C21.67 5.66 21.34 6.32 21 7 C18.67843403 7.40729228 16.3431213 7.74438677 14 8 C14.27617533 9.94074861 14.27617533 9.94074861 15 12 C15.99 12.66 16.98 13.32 18 14 C10.87887343 14.43598734 5.99816727 13.74874 0 9.625 C-1 8 -1 8 -0.6875 5.5 C-0.460625 4.675 -0.23375 3.85 0 3 C0 2.01 0 1.02 0 0 Z " fill="#495156" transform="translate(131,169)"/>
<path d="M0 0 C2.475 0.495 2.475 0.495 5 1 C4.65978525 3.74518106 4.3189707 4.75059904 2.1015625 6.484375 C-4.45971577 9.83745727 -9.67442359 10.62671281 -17 10 C-17 9.67 -17 9.34 -17 9 C-15.35 9 -13.7 9 -12 9 C-12.7763932 5.9254644 -12.7763932 5.9254644 -15 4 C-14.04287109 3.90912109 -14.04287109 3.90912109 -13.06640625 3.81640625 C-11.82697266 3.69072266 -11.82697266 3.69072266 -10.5625 3.5625 C-9.73878906 3.48128906 -8.91507813 3.40007812 -8.06640625 3.31640625 C-6.01337975 3.21069185 -6.01337975 3.21069185 -5 2 C-3.33382885 1.95936168 -1.66611905 1.957279 0 2 C0 1.34 0 0.68 0 0 Z " fill="#353E43" transform="translate(158,172)"/>
<path d="M0 0 C1.30475618 2.60951236 1.11301572 4.52701285 1.09765625 7.4453125 C1.09443359 8.52167969 1.09121094 9.59804687 1.08789062 10.70703125 C1.07951172 11.83496094 1.07113281 12.96289062 1.0625 14.125 C1.05798828 15.26066406 1.05347656 16.39632812 1.04882812 17.56640625 C1.03701615 20.37765638 1.02054507 23.1888023 1 26 C-1.98212913 27.49106457 -4.71609658 27.11941467 -8 27 C-8.33 26.67 -8.66 26.34 -9 26 C-10.51928038 25.92820036 -12.04167482 25.91607993 -13.5625 25.9375 C-14.38878906 25.94652344 -15.21507812 25.95554688 -16.06640625 25.96484375 C-16.70449219 25.97644531 -17.34257812 25.98804688 -18 26 C-18 25.34 -18 24.68 -18 24 C-17.01 24 -16.02 24 -15 24 C-15.33 23.34 -15.66 22.68 -16 22 C-18.11846285 21.31270746 -18.11846285 21.31270746 -20.5625 20.875 C-21.38878906 20.70742187 -22.21507812 20.53984375 -23.06640625 20.3671875 C-23.70449219 20.24601562 -24.34257812 20.12484375 -25 20 C-24.34 19.34 -23.68 18.68 -23 18 C-17.74371562 18.13477652 -13.40138653 20.56023424 -8.78125 22.84375 C-5.84179924 24.06576886 -3.14786074 24.59262979 0 25 C-0.144375 23.92621094 -0.28875 22.85242188 -0.4375 21.74609375 C-0.62523429 20.30992644 -0.81272109 18.87372676 -1 17.4375 C-1.14308594 16.38079102 -1.14308594 16.38079102 -1.2890625 15.30273438 C-1.86397093 10.84719401 -2.27244908 6.50108579 -2 2 C-1.34 1.34 -0.68 0.68 0 0 Z " fill="#FDF6D3" transform="translate(249,151)"/>
<path d="M0 0 C5.01113235 1.4317521 6.94469549 3.98445693 10 8 C8.25 11.875 8.25 11.875 6 13 C5.53476937 14.89533342 5.53476937 14.89533342 5.375 17.0625 C5.25125 18.361875 5.1275 19.66125 5 21 C4.67 21 4.34 21 4 21 C3.87044922 20.00419922 3.87044922 20.00419922 3.73828125 18.98828125 C2.79689582 13.07223517 1.80230137 9.94034984 -3 6 C-3.33 5.34 -3.66 4.68 -4 4 C-3.01 4 -2.02 4 -1 4 C-0.67 2.68 -0.34 1.36 0 0 Z " fill="#41494E" transform="translate(158,140)"/>
<path d="M0 0 C1.32 0.66 2.64 1.32 4 2 C3.67 2.33 3.34 2.66 3 3 C2.76346477 5.52596259 2.57826308 8.03107207 2.4375 10.5625 C2.39431641 11.27341797 2.35113281 11.98433594 2.30664062 12.71679688 C2.20028223 14.47761912 2.09961154 16.2387832 2 18 C2.66 18 3.32 18 4 18 C4.50207679 20.79130788 5.00175075 23.58300871 5.5 26.375 C5.64308594 27.1690625 5.78617188 27.963125 5.93359375 28.78125 C7 34.7734375 7 34.7734375 7 37 C2.13948404 39.59227518 -2.65271133 39.18689553 -8 39 C-8 38.34 -8 37.68 -8 37 C-7.21753906 36.93941406 -6.43507813 36.87882812 -5.62890625 36.81640625 C-4.61699219 36.73261719 -3.60507812 36.64882812 -2.5625 36.5625 C-1.55316406 36.48128906 -0.54382813 36.40007812 0.49609375 36.31640625 C2.93640779 36.26788532 2.93640779 36.26788532 4 35 C3.79884052 30.06244906 3.37920202 24.75058473 2 20 C1.34 19.67 0.68 19.34 0 19 C0 12.73 0 6.46 0 0 Z " fill="#FDF5D3" transform="translate(31,80)"/>
<path d="M0 0 C0 0.66 0 1.32 0 2 C-0.66 2 -1.32 2 -2 2 C-2.12375 2.763125 -2.2475 3.52625 -2.375 4.3125 C-3 7 -3 7 -5 10 C-7.9178052 11.42149484 -9.73204297 12 -13 12 C-13.20086443 8.28400809 -13.1519437 7.22791555 -11 4 C-10.34 4 -9.68 4 -9 4 C-9 3.34 -9 2.68 -9 2 C-8.34 2 -7.68 2 -7 2 C-7 1.34 -7 0.68 -7 0 C-3.98968256 -0.93423645 -3.13349732 -1.04449911 0 0 Z " fill="#394247" transform="translate(73,140)"/>
<path d="M0 0 C0.33 0 0.66 0 1 0 C1 2.31 1 4.62 1 7 C2.65 7.33 4.3 7.66 6 8 C5.5206753 12.31392226 4.2542015 14.16569547 1 17 C0.34 16.67 -0.32 16.34 -1 16 C-2.99021521 16.09723451 -2.99021521 16.09723451 -5.125 16.4375 C-6.40375 16.623125 -7.6825 16.80875 -9 17 C-8.236875 16.278125 -7.47375 15.55625 -6.6875 14.8125 C-2.13060126 10.04365248 -0.6461191 6.59041486 0 0 Z " fill="#3F474C" transform="translate(99,157)"/>
<path d="M0 0 C0.66 0 1.32 0 2 0 C2 0.66 2 1.32 2 2 C3.65 1.67 5.3 1.34 7 1 C6.82374165 3.37948772 6.30280227 4.70225849 4.59765625 6.37890625 C3.09350908 7.62115486 1.54870149 8.81376056 0 10 C-2 9 -2 9 -3 7 C-3.66 6.67 -4.32 6.34 -5 6 C-4.67 5.67 -4.34 5.34 -4 5 C-6.64 4.67 -9.28 4.34 -12 4 C-12 3.67 -12 3.34 -12 3 C-10.82630859 2.80083984 -10.82630859 2.80083984 -9.62890625 2.59765625 C-8.61699219 2.42105469 -7.60507813 2.24445313 -6.5625 2.0625 C-5.55316406 1.88847656 -4.54382813 1.71445313 -3.50390625 1.53515625 C-1.0712562 1.25248903 -1.0712562 1.25248903 0 0 Z " fill="#40484D" transform="translate(184,178)"/>
<path d="M0 0 C2.75 0 2.75 0 6 1 C7.31536201 2.87461456 8.15688689 4.76226001 9.0546875 6.8671875 C9.95049354 8.8883036 10.96403372 10.52293853 12.25 12.3125 C14 15 14 15 14 18 C18.29 18.66 22.58 19.32 27 20 C27 20.33 27 20.66 27 21 C21.21101581 21.20674944 16.57067277 20.59162079 11 19 C10.89816406 18.29488281 10.79632813 17.58976562 10.69140625 16.86328125 C9.90085188 13.58940355 8.59476266 11.11415533 6.9375 8.1875 C6.38964844 7.21167969 5.84179688 6.23585938 5.27734375 5.23046875 C4.85582031 4.49441406 4.43429688 3.75835937 4 3 C3.01 3 2.02 3 1 3 C-0.71711243 5.44496043 -0.71711243 5.44496043 -2 8 C-2.66 7.67 -3.32 7.34 -4 7 C-2.68 4.69 -1.36 2.38 0 0 Z " fill="#F0D273" transform="translate(225,114)"/>
<path d="M0 0 C8.19256018 -0.63019694 8.19256018 -0.63019694 11.5625 2 C12.036875 2.66 12.51125 3.32 13 4 C12.01 4.495 12.01 4.495 11 5 C10.67 5.66 10.34 6.32 10 7 C9.34 6.01 8.68 5.02 8 4 C6.68 4.33 5.36 4.66 4 5 C4 5.66 4 6.32 4 7 C4.99 7.66 5.98 8.32 7 9 C6.01 9.495 6.01 9.495 5 10 C2.64018187 9.06421005 0.30368736 8.06652192 -2 7 C-1.34 6.34 -0.68 5.68 0 5 C0.16687448 2.41645782 0.16687448 2.41645782 0 0 Z " fill="#444B4F" transform="translate(45,181)"/>
<path d="M0 0 C0.66 0.33 1.32 0.66 2 1 C1.50653076 1.38518799 1.01306152 1.77037598 0.50463867 2.16723633 C-1.55239499 4.67285887 -1.26869607 6.12418287 -1.07421875 9.32421875 C-1.01943359 10.35224609 -0.96464844 11.38027344 -0.90820312 12.43945312 C-0.83537109 13.51130859 -0.76253906 14.58316406 -0.6875 15.6875 C-0.62626953 16.77095703 -0.56503906 17.85441406 -0.50195312 18.97070312 C-0.3486115 21.64828378 -0.18075343 24.32415282 0 27 C-1.45922693 26.88590407 -2.91740598 26.75834456 -4.375 26.625 C-5.18710938 26.55539063 -5.99921875 26.48578125 -6.8359375 26.4140625 C-9 26 -9 26 -11 24 C-8.36 24.33 -5.72 24.66 -3 25 C-3.01571045 24.34926514 -3.0314209 23.69853027 -3.04760742 23.02807617 C-3.10994649 20.08130576 -3.14898684 17.13467402 -3.1875 14.1875 C-3.21263672 13.16333984 -3.23777344 12.13917969 -3.26367188 11.08398438 C-3.27333984 10.10107422 -3.28300781 9.11816406 -3.29296875 8.10546875 C-3.31653442 6.74651489 -3.31653442 6.74651489 -3.34057617 5.36010742 C-2.93875073 2.57555794 -2.16311438 1.72400465 0 0 Z " fill="#F0CF6E" transform="translate(249,149)"/>
<path d="M0 0 C1.98 0.495 1.98 0.495 4 1 C3.67 1.33 3.34 1.66 3 2 C4.65 2.33 6.3 2.66 8 3 C7.34 4.32 6.68 5.64 6 7 C6.78375 7.78375 7.5675 8.5675 8.375 9.375 C9.91666667 10.91666667 11.45833333 12.45833333 13 14 C12.34 14.66 11.68 15.32 11 16 C9.56145942 14.73034469 8.12420873 13.45922782 6.6875 12.1875 C5.88699219 11.47980469 5.08648437 10.77210938 4.26171875 10.04296875 C3.51535156 9.36878906 2.76898438 8.69460937 2 8 C1.401875 7.4740625 0.80375 6.948125 0.1875 6.40625 C-0.204375 5.9421875 -0.59625 5.478125 -1 5 C-0.6875 2.3125 -0.6875 2.3125 0 0 Z " fill="#F4CD64" transform="translate(196,136)"/>
<path d="M0 0 C2.33294775 -0.04241723 4.66702567 -0.04092937 7 0 C8 1 8 1 8.30859375 3.29296875 C7.90373754 6.84442892 6.64458743 7.90285426 4.0625 10.3125 C3.33160156 11.00988281 2.60070312 11.70726562 1.84765625 12.42578125 C0 14 0 14 -1 14 C-1 12.35 -1 10.7 -1 9 C0.65 8.67 2.3 8.34 4 8 C3.67 7.01 3.34 6.02 3 5 C3.66 5 4.32 5 5 5 C5 4.34 5 3.68 5 3 C2.525 2.01 2.525 2.01 0 1 C0 0.67 0 0.34 0 0 Z " fill="#F3D16C" transform="translate(252,135)"/>
<path d="M0 0 C1.13748408 3.41245224 0.51851208 4.59451592 -0.5078125 7.8984375 C-1.43388972 11.85264022 -1.62486451 15.98877297 -1 20 C0.46500522 22.15336418 0.46500522 22.15336418 2 24 C2 24.66 2 25.32 2 26 C3.423125 26.433125 3.423125 26.433125 4.875 26.875 C8 28 8 28 10 30 C5.13168719 29.54713369 2.51440774 28.41678531 -1 25 C-4.2609729 19.92106312 -3.47531988 13.79339161 -3 8 C-2.25235162 5.09151816 -1.28494862 2.73051581 0 0 Z " fill="#F1ECED" transform="translate(14,97)"/>
<path d="M0 0 C1.65 0 3.3 0 5 0 C5.66 1.32 6.32 2.64 7 4 C4.1875 6.0625 4.1875 6.0625 1 8 C0.01 7.67 -0.98 7.34 -2 7 C-1.125 2.25 -1.125 2.25 0 0 Z " fill="#343C42" transform="translate(135,137)"/>
<path d="M0 0 C0.66 0.33 1.32 0.66 2 1 C1.814375 1.78375 1.62875 2.5675 1.4375 3.375 C0.74037734 5.97089775 0.74037734 5.97089775 2 8 C1.34 8 0.68 8 0 8 C-0.33 8.66 -0.66 9.32 -1 10 C-1.99 9.01 -2.98 8.02 -4 7 C-4.66 7.66 -5.32 8.32 -6 9 C-6.99 9.33 -7.98 9.66 -9 10 C-7.24277009 5.68679932 -4.1937832 2.0968916 0 0 Z " fill="#434A4F" transform="translate(133,138)"/>
<path d="M0 0 C5.63260767 5.63260767 4.59704138 17.5452656 5 25 C4.01 25 3.02 25 2 25 C1.93941406 23.94941406 1.87882813 22.89882812 1.81640625 21.81640625 C1.38453527 14.51717848 0.90736046 7.25888365 0 0 Z " fill="#ECECEC" transform="translate(193,102)"/>
<path d="M0 0 C1.3303125 0.37125 1.3303125 0.37125 2.6875 0.75 C2.875 3.125 2.875 3.125 2.6875 5.75 C1.6975 6.41 0.7075 7.07 -0.3125 7.75 C-0.9003125 6.76 -0.9003125 6.76 -1.5 5.75 C-3.16666667 3.45833333 -3.16666667 3.45833333 -6 3.5 C-6.763125 3.5825 -7.52625 3.665 -8.3125 3.75 C-4.12788462 -0.31153846 -4.12788462 -0.31153846 0 0 Z " fill="#464E51" transform="translate(131.3125,192.25)"/>
<path d="M0 0 C0.33 0.66 0.66 1.32 1 2 C2.32 1.67 3.64 1.34 5 1 C6.125 6.75 6.125 6.75 5 9 C2.53199953 7.84826645 0.95216435 6.95216435 -1 5 C-0.625 2.375 -0.625 2.375 0 0 Z " fill="#343B42" transform="translate(126,168)"/>
<path d="M0 0 C-1.38563197 3.34861059 -2.76027096 5.29014301 -6 7 C-9.25 6.6875 -9.25 6.6875 -12 6 C-11.01 5.67 -10.02 5.34 -9 5 C-8.67 4.01 -8.34 3.02 -8 2 C-4.77208445 -0.1519437 -3.71599191 -0.20086443 0 0 Z " fill="#414A50" transform="translate(123,150)"/>
<path d="M0 0 C1.98 0 3.96 0 6 0 C7.0625 1.875 7.0625 1.875 8 4 C7.67 4.66 7.34 5.32 7 6 C4.03 5.505 4.03 5.505 1 5 C0.67 3.35 0.34 1.7 0 0 Z " fill="#E5E7E9" transform="translate(54,88)"/>
<path d="M0 0 C0.33 0 0.66 0 1 0 C1.34934248 2.93447681 1.51495218 5.14367502 -0.04296875 7.734375 C-1.375 9.375 -1.375 9.375 -4 12 C-4.66 12 -5.32 12 -6 12 C-6 12.66 -6 13.32 -6 14 C-7.32 13.67 -8.64 13.34 -10 13 C-9.36191406 12.39671875 -8.72382813 11.7934375 -8.06640625 11.171875 C-7.24011719 10.37265625 -6.41382813 9.5734375 -5.5625 8.75 C-4.73878906 7.96109375 -3.91507812 7.1721875 -3.06640625 6.359375 C-1.08114793 4.09265283 -0.3699641 2.9328063 0 0 Z " fill="#FDF5D5" transform="translate(260,137)"/>
<path d="M0 0 C3.465 1.485 3.465 1.485 7 3 C4.47043472 6.0916909 1.77545388 6.90931332 -2 8 C-2.33 7.34 -2.66 6.68 -3 6 C-2.34 5.67 -1.68 5.34 -1 5 C-1.33 4.34 -1.66 3.68 -2 3 C-1.34 3 -0.68 3 0 3 C0 2.01 0 1.02 0 0 Z " fill="#41474E" transform="translate(71,172)"/>
<path d="M0 0 C0.33 0 0.66 0 1 0 C1.06058594 0.60328125 1.12117187 1.2065625 1.18359375 1.828125 C1.26738281 2.62734375 1.35117187 3.4265625 1.4375 4.25 C1.51871094 5.03890625 1.59992187 5.8278125 1.68359375 6.640625 C1.97922385 8.8450766 2.30626241 10.88619554 3 13 C4.86644906 14.18330183 4.86644906 14.18330183 7 15 C7.99 15.66 8.98 16.32 10 17 C9.67 17.66 9.34 18.32 9 19 C4.8091985 16.4855191 1.80972167 14.62484427 0 10 C-0.23155529 6.65016685 -0.17570423 3.35139547 0 0 Z " fill="#EFF0EE" transform="translate(2,66)"/>
<path d="M0 0 C2.97 0.495 2.97 0.495 6 1 C5.25 3.4375 5.25 3.4375 4 6 C1.875 6.8125 1.875 6.8125 0 7 C0 4.66666667 0 2.33333333 0 0 Z " fill="#303A40" transform="translate(64,206)"/>
<path d="M0 0 C1.32 0.33 2.64 0.66 4 1 C4.33 2.32 4.66 3.64 5 5 C2.625 6.5625 2.625 6.5625 0 8 C-0.66 7.67 -1.32 7.34 -2 7 C-1.67 6.34 -1.34 5.68 -1 5 C-0.64386903 3.33805547 -0.30791692 1.671549 0 0 Z " fill="#343A40" transform="translate(72,211)"/>
<path d="M0 0 C0 3.87297078 -0.35529537 5.1286064 -3 8 C-6.65841413 8.75002886 -10.27185408 8.93037418 -14 9 C-12 7 -12 7 -8.6875 6.1875 C-4.56805862 4.86090023 -2.80237053 3.22697212 0 0 Z " fill="#FEF4CE" transform="translate(218,125)"/>
<path d="M0 0 C1.0625 1.8125 1.0625 1.8125 2 4 C1.67 4.99 1.34 5.98 1 7 C-1.64 7.33 -4.28 7.66 -7 8 C-6.21625 7.236875 -5.4325 6.47375 -4.625 5.6875 C-1.92742283 3.09108195 -1.92742283 3.09108195 0 0 Z " fill="#465055" transform="translate(97,166)"/>
<path d="M0 0 C4.83628305 0.99043705 9.47618873 1.95698846 14 4 C10.62700256 5.15006091 8.65146785 4.85199953 5.3125 3.6875 C4.52488281 3.42324219 3.73726562 3.15898438 2.92578125 2.88671875 C1 2 1 2 0 0 Z " fill="#F2F1F1" transform="translate(137,36)"/>
<path d="M0 0 C2.97 0 5.94 0 9 0 C7 3 7 3 4.875 3.6875 C3.946875 3.8421875 3.946875 3.8421875 3 4 C3 3.34 3 2.68 3 2 C2.34 2 1.68 2 1 2 C1 2.66 1 3.32 1 4 C0.34 4 -0.32 4 -1 4 C-0.67 2.68 -0.34 1.36 0 0 Z " fill="#2F353A" transform="translate(172,182)"/>
<path d="M0 0 C-5.02416822 3.34944548 -9.09951257 3.09834146 -15 3 C-9.97583178 -0.34944548 -5.90048743 -0.09834146 0 0 Z " fill="#F0D56F" transform="translate(215,133)"/>
<path d="M0 0 C4.34271252 0.48252361 6.1398221 1.7453148 9 5 C9.66 5.66 10.32 6.32 11 7 C10.34 7.66 9.68 8.32 9 9 C7.49704815 7.69088122 5.99770689 6.37761608 4.5 5.0625 C3.6646875 4.33160156 2.829375 3.60070312 1.96875 2.84765625 C1.3190625 2.23792969 0.669375 1.62820312 0 1 C0 0.67 0 0.34 0 0 Z " fill="#F2D271" transform="translate(198,143)"/>
<path d="M0 0 C0.33 0 0.66 0 1 0 C0.67 2.64 0.34 5.28 0 8 C-1.65 8.33 -3.3 8.66 -5 9 C-3.35 6.03 -1.7 3.06 0 0 Z " fill="#F3D26E" transform="translate(220,123)"/>
<path d="M0 0 C0.33 0.66 0.66 1.32 1 2 C2.32 1.34 3.64 0.68 5 0 C5.66 0.66 6.32 1.32 7 2 C5.02 3.32 3.04 4.64 1 6 C0.34 5.01 -0.32 4.02 -1 3 C-0.67 2.01 -0.34 1.02 0 0 Z " fill="#3D434A" transform="translate(124,116)"/>
<path d="M0 0 C-0.6875 1.9375 -0.6875 1.9375 -2 4 C-4.5 4.875 -4.5 4.875 -7 5 C-7.66 4.34 -8.32 3.68 -9 3 C-2.25 0 -2.25 0 0 0 Z " fill="#FCF4D1" transform="translate(223,171)"/>
<path d="M0 0 C-3.75 3.875 -3.75 3.875 -6 5 C-6.66 4.34 -7.32 3.68 -8 3 C-7.625 0.875 -7.625 0.875 -7 -1 C-3.51418144 -2.2020064 -3.32007656 -2.21338437 0 0 Z " fill="#464D53" transform="translate(94,139)"/>
<path d="M0 0 C2.15377564 2.62198774 3.40072174 4.64404172 4 8 C2.35 7.67 0.7 7.34 -1 7 C-0.67 4.69 -0.34 2.38 0 0 Z " fill="#44494D" transform="translate(181,99)"/>
<path d="M0 0 C1.32 0 2.64 0 4 0 C4.625 1.875 4.625 1.875 5 4 C4.34 4.66 3.68 5.32 3 6 C2.01 5.34 1.02 4.68 0 4 C0 2.68 0 1.36 0 0 Z " fill="#3A4147" transform="translate(132,175)"/>
<path d="M0 0 C0.99 0.33 1.98 0.66 3 1 C3 1.66 3 2.32 3 3 C2.34 3 1.68 3 1 3 C1 4.32 1 5.64 1 7 C-2 6 -2 6 -3 5 C-2.6875 3 -2.6875 3 -2 1 C-1.34 0.67 -0.68 0.34 0 0 Z " fill="#2F383E" transform="translate(70,139)"/>
<path d="M0 0 C3.875 0.875 3.875 0.875 5 2 C5.04063832 3.66617115 5.042721 5.33388095 5 7 C4.01 7.33 3.02 7.66 2 8 C2 5.69 2 3.38 2 1 C1.34 0.67 0.68 0.34 0 0 Z " fill="#51575A" transform="translate(198,66)"/>
<path d="M0 0 C-1.32 0.33 -2.64 0.66 -4 1 C-4 1.66 -4 2.32 -4 3 C-4.66 3 -5.32 3 -6 3 C-6 3.66 -6 4.32 -6 5 C-6.66 5 -7.32 5 -8 5 C-8 4.01 -8 3.02 -8 2 C-8.66 1.67 -9.32 1.34 -10 1 C-6.52674819 -0.1577506 -3.63932552 -0.06866652 0 0 Z " fill="#454D51" transform="translate(117,149)"/>
<path d="M0 0 C1.32 0.33 2.64 0.66 4 1 C3.34 2.32 2.68 3.64 2 5 C0.35 4.67 -1.3 4.34 -3 4 C-2.34 3.67 -1.68 3.34 -1 3 C-0.67 2.01 -0.34 1.02 0 0 Z " fill="#343B40" transform="translate(155,139)"/>
<path d="M0 0 C-4.10457614 2.98514628 -6.97745369 3.2954439 -12 3 C-8.61613364 -0.38386636 -4.56431325 -1.75550509 0 0 Z " fill="#5A5F63" transform="translate(44,59)"/>
<path d="M0 0 C0.33 0.66 0.66 1.32 1 2 C0.113125 2.144375 -0.77375 2.28875 -1.6875 2.4375 C-4.47117646 2.91019978 -7.23483757 3.43070185 -10 4 C-10 3.34 -10 2.68 -10 2 C-6.5980513 -0.09350689 -3.94727588 -0.17942163 0 0 Z " fill="#ECEAEB" transform="translate(230,179)"/>
</svg>
